<svg id="blackbear" xmlns="http://www.w3.org/2000/svg" viewBox="0 0 273.91 324.14"><defs><style>.cls-1,.cls-2{fill:#fff;}.cls-2{stroke:#fff;stroke-miterlimit:10;}</style></defs><title>whitebear</title><path class="cls-1" d="M567.08,287.58c-25.58-13.32-30.45-43.43-25.89-68.05a58.93,58.93,0,0,1,11.61-25.28c7-9.16,18.94-7.86,27.89,0s20,13.18,30.31,19.36c1,.63,3.21-.27,4.73-.8,7.49-2.61,15-5.16,22.38-8.06,11.47-4.51,22.78-4.11,34.27,0a13.08,13.08,0,0,0,8.18,0c11.49-4.12,22.82-4.58,34.28-.06,5.24,2.07,10.8,3.42,15.84,5.88,7.2,3.52,13.75,3.64,20.35-1.22,7.83-5.76,16.19-10.85,23.62-17.07,8.44-7.08,19.74-6.22,26.08,2.94,16.75,24.2,17.21,55.62.93,79.85-1.82,2.71-4.6,4.87-7.21,6.94-2.43,1.94-5.23,3.42-8.57,5.55,18.78,47.25,19,94.15-5.62,140l-1-1.38c-1.53,1-3.77,1.61-4.49,3-11.6,22.77-28.23,40.73-48.88,55.87-14.61,10.71-30.53,18.42-46.62,26.12a7.11,7.11,0,0,1-5.45.06c-11.22-5.46-22.88-10.3-33.3-17-16.75-10.84-33.2-22.47-45.48-38.57-10.52-13.78-19.41-28.64-25.41-45.06-1.13-3.09-2.57-6.07-4-9.37l-4.56,3.13C545.26,364.34,552.56,325.94,567.08,287.58Zm109.83-30.87a9.85,9.85,0,0,0,2.27-1.55c2.39-2.74,4.38-4.79,6.46.44.55,1.37,2.94,2.61,4.62,2.82a122.57,122.57,0,0,0,16.68,1.22c7.06-.07,14.12-1.17,21.17-1.12,4,0,8.05,1.44,12.76,2.37-.13-16.27-5.14-29.41-19.18-37.5-13.5-7.78-27.34-9.31-40.35,1.29-3.57,2.91-6,2.92-9.62,0-9.3-7.47-19.64-9.47-31.2-5.33-12.34,4.42-24.89,8.25-37.05,12.24-.66-1.91-.73-4.45-2-5.29-9.44-6.44-18.86-13-28.79-18.62-7.42-4.21-12.37-1.56-14.72,5.42,19.09,4.22,20.4,22.87,29.05,35.66l5.91-5.46c1.62,9.42,1.05,17.62-2.89,25.65-5.58,11.37-12.11,22.51-15.86,34.49-4.28,13.64-6.77,28-8.5,42.24-1.17,9.63.32,19.59.62,29.4l2.13.22,6.09-6.55c10.18,32.21,19.77,48.77,29.88,51.93-13.44-32.08-15.59-64.79-6.62-98.55l9.86,8.44c3.79-20.95,13.74-36.82,27.19-50.68l-16.24-10.44c4.85-2.21,8.06-4.54,11.56-5.09,8-1.27,16.18-1.84,24.3-2.37,9.24-.6,10.59-1.46,13.62-11.2Zm76,50.29c-4-13.72-12.08-21.87-23.16-27.52-4-2-7.37-2.94-11.22.65-2.49,2.32-6,3.57-9.44,5.54a60.49,60.49,0,0,0-4.48-5c-6.2-5.49-12.07-11.25-20.78-13.13-16.11-3.47-27.11,4.71-37.46,15.13A21.16,21.16,0,0,0,639.79,299c.28,15.22,0,30.46-.06,45.69-.05,12.79,3.72,15.79,16,12.79.49-.12,1.1.24,2,.47l-2.5,6.16c11.71,8.54,32.19,8.36,42.46-.21l-2.85-6.94c2.57.68,3.9,1.09,5.26,1.38,8.19,1.74,12.07-.91,12.85-9.12a83.24,83.24,0,0,0-.11-10.65c-.23-6.67-.83-13.34-.72-20,.15-9.55.78-19.09,1.23-29.11C728.27,289.71,739.91,298.12,752.9,307Zm23.81,91.31c12-34,7.48-65.61-2.8-97.09a197.52,197.52,0,0,1-.71,72.84l-3.58-2.83c-3.94,19.83-12.42,37.17-24.86,54.65,11-6.76,17.42-15.6,26.77-35.61ZM568.2,254.65c-1.92-1.39-4.13-2.14-4.34-3.27-1.57-8.32-2.73-16.72-4.12-25.66-3.69-.11-5.58,3.32-6.55,7.65-2.66,11.82,1.34,21.74,9.15,30.36,1.92,2.13,4.59,3.58,7.81,6Zm183.85-27c5.74,2.7,10.76.16,15.59-2.9a121.21,121.21,0,0,0,12.4-8.49c5.21-4.29,10.2-4.43,15.54-.35-1.72-9.87-10.57-12.84-19.45-6.44C768.09,215.25,760.29,221.4,752,227.64Z" transform="translate(-539.67 -187.61)"/><path class="cls-2" d="M696.83,307.84l-6.39-7.11c-2.26,2.83-5.12,5.38-6.63,8.57a32.23,32.23,0,0,0-2.57,10.89c-.88,10.26,3.58,15.69,13.84,16.74,5.3.55,8.66,2.45,8.85,7.52H649.72c0-4.69,1.41-6.95,6.57-7.2,7.4-.37,13.47-2.74,15.05-10.39A27.94,27.94,0,0,0,665,302.25c-.69-.8-3.87-.55-5,.35-1.47,1.22-2,3.53-3,5.38-7.78-3.58-9.58-13.77-3.69-20.89,11-13.3,35.61-13.21,46.38.18C705.41,294.29,703.9,303.53,696.83,307.84Zm-25.12-24.36c-6.71-1.51-11.47.93-13,6.65C665.42,291.07,669.59,288.93,671.71,283.48Z" transform="translate(-539.67 -187.61)"/></svg>